<?xml version="1.0" standalone="no"?><!DOCTYPE svg PUBLIC "-//W3C//DTD SVG 1.1//EN" "http://www.w3.org/Graphics/SVG/1.1/DTD/svg11.dtd"><svg t="1658141381817" class="icon" viewBox="0 0 1024 1024" version="1.1" xmlns="http://www.w3.org/2000/svg" p-id="9880" xmlns:xlink="http://www.w3.org/1999/xlink" width="128" height="128"><defs><style type="text/css"></style></defs><path d="M948.334181 343.217922l-119.884414-209.593576c-13.351076-23.228027-42.385343-40.105417-69.140707-40.105417l-495.167636 0c-26.809599 0-55.95336 16.823154-69.249177 39.996946L75.821361 340.015997c-13.947663 24.204262-11.396561 58.991556 6.024204 81.07962l387.331629 489.034962c3.364631 4.123924 7.760754 6.674003 11.938913 9.658987l1.194198 3.799536 2.495844-0.814552c7.869225 4.613064 16.390295 7.706519 25.507954 7.706519 9.226129 0 17.801435-3.201925 25.778106-7.977695l2.116197 0.650823 0.976234-3.146667c4.233418-2.930749 8.738012-5.536087 12.156878-9.769504l390.642025-485.995743C959.459566 402.372184 962.173374 367.584889 948.334181 343.217922zM871.975073 327.58692 727.28981 327.58692l63.551408-141.754514L871.975073 327.58692zM584.82819 152.021346l157.00587 0-60.077284 133.994784L584.82819 152.021346zM512.594029 152.021346l126.994346 175.565575L382.397758 327.58692l126.994346-175.565575L512.594029 152.021346zM340.228333 286.016129l-60.131519-133.994784 157.059082 0L340.228333 286.016129zM639.750057 386.091382 509.446339 816.404941 371.76049 386.091382 639.750057 386.091382zM231.633033 187.026604l63.062268 140.560316L150.498154 327.58692 231.633033 187.026604zM128.789737 386.091382l181.535543 0 123.032104 384.509351L128.789737 386.091382zM582.005912 778.632663l118.907157-392.541281 195.809641 0c-0.216941 0.434905-0.162706 1.194198-0.433882 1.51961L582.005912 778.632663z" p-id="9881"></path></svg>