<?xml version="1.0" encoding="UTF-8" standalone="no"?>
<!DOCTYPE svg PUBLIC "-//W3C//DTD SVG 1.1//EN" "http://www.w3.org/Graphics/SVG/1.1/DTD/svg11.dtd">
<svg width="100%" height="100%" viewBox="0 0 39 39" version="1.1" xmlns="http://www.w3.org/2000/svg" xmlns:xlink="http://www.w3.org/1999/xlink" xml:space="preserve" xmlns:serif="http://www.serif.com/" style="fill-rule:evenodd;clip-rule:evenodd;stroke-linejoin:round;stroke-miterlimit:2;">
    <g transform="matrix(1,0,0,1,-96,0)">
        <path d="M118.6,10.6L128,1.2C129.6,-0.4 132.2,-0.4 133.8,1.2C135.4,2.8 135.4,5.4 133.8,7L124.4,16.4C122.8,18 120.2,18 118.6,16.4C117,14.8 117,12.2 118.6,10.6Z" style="fill:url(#_Linear1);"/>
    </g>
    <g transform="matrix(1,0,0,1,-96,0)">
        <path d="M133.5,31.7L118.4,16.6L118.4,16.5L103.3,1.4C101.7,-0.2 99,-0.2 97.4,1.4C95.8,3 95.8,5.7 97.4,7.3L109.6,19.5L97.4,31.7C95.8,33.3 95.8,36 97.4,37.6C98.2,38.4 99.3,38.8 100.4,38.8C101.5,38.8 102.5,38.4 103.4,37.6L115.6,25.4L127.8,37.6C128.6,38.4 129.7,38.8 130.8,38.8C131.9,38.8 132.9,38.4 133.8,37.6C135.2,35.9 135.2,33.3 133.5,31.7Z" style="fill-rule:nonzero;"/>
    </g>
    <defs>
        <linearGradient id="_Linear1" x1="0" y1="0" x2="1" y2="0" gradientUnits="userSpaceOnUse" gradientTransform="matrix(15.167,-15.167,15.167,15.167,118.637,16.2854)"><stop offset="0" style="stop-color:rgb(0,241,254);stop-opacity:0"/><stop offset="1" style="stop-color:rgb(0,241,254);stop-opacity:1"/></linearGradient>
    </defs>
</svg>
