<?xml version="1.0" standalone="no"?><!DOCTYPE svg PUBLIC "-//W3C//DTD SVG 1.1//EN" "http://www.w3.org/Graphics/SVG/1.1/DTD/svg11.dtd"><svg t="1658140025667" class="icon" viewBox="0 0 1024 1024" version="1.1" xmlns="http://www.w3.org/2000/svg" p-id="4042" xmlns:xlink="http://www.w3.org/1999/xlink" width="128" height="128"><defs><style type="text/css"></style></defs><path d="M781.24 595.763c100.383 0 181.76 81.313 181.76 181.618C963 877.687 881.623 959 781.24 959c-100.385 0-181.762-81.313-181.762-181.619 0-100.305 81.377-181.618 181.761-181.618z m142.954-487.958c11.568 11.412 11.87 29.92 0.814 41.7l-0.544 0.565-748.397 757.42c-11.606 11.746-30.543 11.867-42.298 0.27-11.568-11.412-11.87-29.92-0.814-41.7l0.544-0.565 748.397-757.42c11.606-11.746 30.543-11.867 42.298-0.27zM781.24 655.536c-67.346 0-121.94 54.552-121.94 121.845 0 67.294 54.594 121.846 121.94 121.846s121.94-54.552 121.94-121.846c0-67.293-54.594-121.845-121.94-121.845zM249.761 67c100.384 0 181.76 81.313 181.76 181.619 0 100.305-81.376 181.618-181.76 181.618C149.377 430.237 68 348.924 68 248.62 68 148.313 149.377 67 249.76 67z m0 59.773c-67.346 0-121.94 54.552-121.94 121.846 0 67.293 54.594 121.845 121.94 121.845S371.7 315.912 371.7 248.619c0-67.294-54.594-121.846-121.94-121.846z" p-id="4043"></path></svg>