<?xml version="1.0" standalone="no"?><!DOCTYPE svg PUBLIC "-//W3C//DTD SVG 1.1//EN" "http://www.w3.org/Graphics/SVG/1.1/DTD/svg11.dtd"><svg t="1658092607476" class="icon" viewBox="0 0 1024 1024" version="1.1" xmlns="http://www.w3.org/2000/svg" p-id="6931" xmlns:xlink="http://www.w3.org/1999/xlink" width="48" height="48"><defs><style type="text/css"></style></defs><path d="M915.583144 991.354219 791.216693 991.354219C772.982886 991.354219 758.184435 976.5888 758.184435 958.321961 758.184435 940.055123 772.982886 925.289703 791.216693 925.289703L915.583144 925.289703C919.348822 925.289703 922.949338 923.63809 925.45979 920.764284 927.012306 919.046606 928.696951 916.1728 928.234499 912.37409 923.048435 872.338994 901.47837 850.108284 862.26908 844.294606 828.741338 839.306735 803.438628 810.634735 802.084306 776.049961 800.300564 730.432413 798.516822 647.422348 803.90108 454.546994 809.417467 257.476542 719.833983 205.748026 665.925338 192.402994 639.004048 185.796542 618.391919 164.754994 613.470112 138.725574 603.19708 85.081187 547.768951 66.054606 503.406628 66.054606 459.209467 66.054606 408.141596 85.378477 397.406112 139.68351 392.418241 165.118348 371.872177 185.829574 345.116046 192.402994 291.174369 205.648929 201.458756 257.311381 206.975143 454.546994 212.359401 647.422348 210.575659 730.432413 208.791917 776.049961 207.437595 810.634735 182.134885 839.306735 148.574111 844.294606 109.397853 850.108284 87.827788 872.338994 82.641724 912.407123 82.179272 916.1728 83.863917 919.046606 85.416433 920.764284 87.926885 923.63809 91.527401 925.289703 95.293079 925.289703L654.991661 925.289703C673.225467 925.289703 688.023919 940.055123 688.023919 958.321961 688.023919 976.5888 673.225467 991.354219 654.991661 991.354219L95.293079 991.354219C72.533853 991.354219 50.864692 981.510606 35.768949 964.399897 21.102627 947.718606 14.331014 925.653058 17.138756 903.950865 26.12353 834.616155 70.518885 789.064671 138.928692 778.923768 140.943659 778.65951 142.661337 776.18209 142.760433 773.473445 144.544175 728.7808 146.261853 647.257187 140.943659 456.429832 133.841724 203.700026 270.364046 142.722477 329.359659 128.254348 331.341595 127.758865 332.530756 126.734865 332.795014 126.338477 347.857725 49.802735 414.880177-0.00991 503.406628-0.00991 578.455919-0.00991 661.664177 39.067252 678.345467 126.338477 678.477596 126.569703 679.633725 127.758865 681.714757 128.287381 740.71037 142.854606 877.034499 203.898219 869.932564 456.429832 864.61437 647.257187 866.332048 728.7808 868.11579 773.473445 868.214886 776.18209 869.932564 778.65951 871.947532 778.923768 940.357338 789.064671 984.752693 834.616155 993.737467 903.917832 996.545209 925.653058 989.773596 947.718606 975.107273 964.399897 960.011532 981.510606 938.34237 991.354219 915.583144 991.354219" p-id="6932"></path></svg>